<svg height="512pt" viewBox="0 0 512 512.001" width="512pt" xmlns="http://www.w3.org/2000/svg"><path d="m456.410156 64.804688c-6.761718-.707032-12.929687 3.207031-15.398437 9.183593l-1.109375-.460937c2.601562-6.265625.691406-13.722656-5.042969-17.878906-6.707031-4.863282-16.085937-3.367188-20.949219 3.339843l-157.925781 217.847657-157.925781-217.847657c-4.074219-5.621093-11.472656-7.710937-17.886719-5.054687l-28.808594 11.933594c-6.128906 2.539062-9.863281 8.804687-9.179687 15.402343l38.214844 369.074219c.792968 7.644531 7.234374 13.457031 14.917968 13.457031h321.332032c7.6875 0 14.128906-5.8125 14.921874-13.457031l38.214844-369.074219c.855469-8.238281-5.132812-15.613281-13.375-16.464843zm0 0" fill="#ffe470"/><path d="m456.410156 64.804688c-6.761718-.707032-12.929687 3.207031-15.398437 9.183593l-1.109375-.460937c2.601562-6.265625.691406-13.722656-5.042969-17.878906-6.707031-4.863282-16.085937-3.367188-20.949219 3.339843l-157.925781 217.847657v186.964843h160.667969c7.683594 0 14.128906-5.8125 14.917968-13.457031l38.214844-369.074219c.855469-8.238281-5.132812-15.613281-13.375-16.464843zm0 0" fill="#ffb64c"/><path d="m375.484375 455.617188c2.5625-5.023438 2.089844-11.058594-1.21875-15.621094l-118.28125-163.160156-118.28125 163.160156c-3.308594 4.5625-3.777344 10.597656-1.214844 15.621094 2.5625 5.023437 7.722657 8.183593 13.359375 8.183593h212.273438c5.636718 0 10.800781-3.160156 13.363281-8.183593zm0 0" fill="#ff9f00"/><path d="m374.265625 439.996094-118.28125-163.160156v186.964843h106.136719c5.640625 0 10.800781-3.160156 13.363281-8.183593 2.5625-5.023438 2.089844-11.058594-1.21875-15.621094zm0 0" fill="#ff641a"/><path d="m448.785156 433.800781h-385.601562c-21.558594 0-39.097656 17.539063-39.097656 39.097657 0 21.5625 17.539062 39.101562 39.097656 39.101562h385.601562c21.558594 0 39.101563-17.539062 39.101563-39.101562-.003907-21.558594-17.542969-39.097657-39.101563-39.097657zm0 0" fill="#e7f0ef"/><path d="m448.785156 433.800781h-192.800781v78.199219h192.800781c21.558594 0 39.097656-17.539062 39.097656-39.101562 0-21.558594-17.539062-39.097657-39.097656-39.097657zm0 0" fill="#c5e1e6"/><path d="m140.613281 45.132812c-11.355469-27.414062-37.871093-45.132812-67.546875-45.132812-9.609375 0-19.011718 1.878906-27.949218 5.578125-37.230469 15.425781-54.976563 58.265625-39.550782 95.496094 1.519532 3.675781 4.441406 6.59375 8.117188 8.117187 1.835937.761719 3.785156 1.140625 5.738281 1.140625s3.902344-.378906 5.742187-1.140625l107.332032-44.460937c7.652344-3.167969 11.285156-11.945313 8.117187-19.597657zm0 0" fill="#463b85"/><path d="m466.851562 5.578125c-8.9375-3.699219-18.339843-5.578125-27.949218-5.578125-29.675782 0-56.191406 17.71875-67.546875 45.136719-3.167969 7.652343.464843 16.425781 8.117187 19.597656l107.332032 44.457031c1.839843.761719 3.789062 1.144532 5.742187 1.144532 1.949219 0 3.902344-.382813 5.738281-1.144532 3.675782-1.519531 6.597656-4.441406 8.121094-8.117187 15.417969-37.230469-2.324219-80.070313-39.554688-95.496094zm0 0" fill="#2b2256"/></svg>